PathFileType	4	(X/Y/Z)	\\147.46.242.158\로컬 디스크 (e)\MOCAP Data\Iguana Capture\iguana\Project 2\Capture day 7\Session 2\Take06.trc
DataRate	CameraRate	NumFrames	NumMarkers	Units	OrigDataRate	OrigDataStartFrame	OrigNumFrames
120.0	120.0	10	23	mm	120.0	121	14620
Frame#	Time	ana:head1			ana:head2			ana:bone1			ana:bone2			ana:bone3			ana:tail1			ana:tail2			ana:tail3			ana:tail4			ana:Rforefoot1			ana:Rforefoot2			ana:Rforefoot3			ana:Lforefoot1			ana:Lforefoot2			ana:Lforefoot3			ana:RhindLeg1			ana:RhindLeg2			ana:RhindLeg3			ana:RhindLeg4			ana:LhindLeg1			ana:LhindLeg2			ana:LhindLeg3			ana:LhindLeg4			
		X1	Y1	Z1	X2	Y2	Z2	X3	Y3	Z3	X4	Y4	Z4	X5	Y5	Z5	X6	Y6	Z6	X7	Y7	Z7	X8	Y8	Z8	X9	Y9	Z9	X10	Y10	Z10	X11	Y11	Z11	X12	Y12	Z12	X13	Y13	Z13	X14	Y14	Z14	X15	Y15	Z15	X16	Y16	Z16	X17	Y17	Z17	X18	Y18	Z18	X19	Y19	Z19	X20	Y20	Z20	X21	Y21	Z21	X22	Y22	Z22	X23	Y23	Z23	

9583	79.850	419.17188	-115.74340	52.79848	409.15613	-118.88766	52.85721	389.08588	-124.57069	40.80991	362.99673	-132.73166	36.12065	329.01703	-139.58009	30.47253	299.05786	-137.59705	23.63495	269.90811	-116.70381	15.93152	251.19731	-76.92896	8.20262	239.66647	-38.79268	6.39023	400.23541	-133.52290	24.06507	401.11108	-146.68062	15.57144	408.60803	-136.44818	4.67811	386.40408	-113.88934	29.64723	375.55716	-109.37302	28.62628	366.76227	-110.55243	12.91094	329.38089	-150.82704	24.02773	325.38147	-169.60378	20.84475	309.59232	-184.45149	12.37359	315.60770	-192.74434	6.14869	329.70987	-131.19637	22.96326	338.76602	-115.19514	19.74607	323.91565	-119.51936	4.36025	335.26013	-112.78932	3.82688	
9584	79.858	419.72345	-115.53216	52.98190	409.69125	-118.65461	53.00348	389.61826	-124.27716	40.97454	363.44971	-132.11884	36.09542	329.61856	-139.12997	30.16597	299.46872	-137.87944	22.84026	269.86569	-117.85104	14.61125	250.39992	-78.46898	7.41439	239.53941	-39.98247	6.45181	400.64896	-133.34335	24.20312	401.11621	-146.51762	15.62012	408.63617	-136.39630	4.65909	387.45856	-113.63071	30.04017	376.80643	-108.72086	29.43541	368.94922	-107.94876	13.53304	329.99078	-150.30557	23.73752	325.94531	-169.05133	20.53364	310.20480	-184.09450	12.29274	315.86810	-192.64198	6.06331	330.08105	-130.72028	22.58826	338.81506	-114.51287	19.37185	323.95346	-119.45440	4.27544	335.28415	-112.77245	3.81997	
9585	79.867	420.23032	-115.32740	53.09315	410.20850	-118.47521	53.09591	390.10071	-123.98587	41.15167	363.86548	-131.49832	36.03352	330.24814	-138.70471	29.85227	299.88605	-138.19679	22.17271	269.77539	-119.12057	13.61180	249.52942	-80.09523	6.93683	239.40564	-41.28020	6.50887	401.02585	-133.17284	24.26074	401.11737	-146.37271	15.63556	408.65396	-136.33527	4.64939	388.37766	-113.38509	30.39468	377.99603	-108.08587	30.19094	371.42978	-104.90314	14.34685	330.58139	-149.75859	23.43282	326.51663	-168.49660	20.23209	310.82312	-183.73711	12.23154	316.17365	-192.49316	5.98743	330.42496	-130.24977	22.20871	338.81671	-113.82850	19.00172	323.99341	-119.36170	4.16775	335.32275	-112.75280	3.81205	
9586	79.875	420.75366	-115.14969	53.18416	410.71170	-118.33304	53.18261	390.57657	-123.69463	41.27048	364.29318	-130.86955	35.95167	330.87103	-138.29193	29.52681	300.30734	-138.50389	21.68215	269.69666	-120.35752	12.89085	248.80986	-81.60469	6.66338	239.27162	-42.55962	6.52128	401.38254	-132.99991	24.27236	401.09424	-146.22838	15.64127	408.65274	-136.28416	4.62497	389.19843	-113.14127	30.63816	379.18451	-107.48524	30.79577	374.07568	-101.70026	15.40613	331.16507	-149.20042	23.15427	327.09717	-167.94621	19.98084	311.43835	-183.36406	12.19579	316.52167	-192.28876	5.94352	330.72388	-129.75523	21.90321	338.72208	-113.14168	18.64934	324.03421	-119.24052	4.01820	335.36096	-112.73243	3.80572	
9587	79.883	421.30219	-115.00114	53.25867	411.21603	-118.18005	53.26048	391.02661	-123.35818	41.37669	364.72614	-130.24043	35.87665	331.40289	-137.87953	29.26017	300.72449	-138.76620	21.35858	269.67877	-121.42359	12.43168	248.29466	-82.87956	6.55488	239.13673	-43.68617	6.49785	401.71716	-132.82454	24.26933	401.05603	-146.07941	15.65248	408.64490	-136.25095	4.59667	389.99515	-112.86843	30.77025	380.35614	-106.90275	31.34241	376.77179	-98.68223	16.67193	331.72736	-148.65512	22.92528	327.69995	-167.41081	19.81263	312.06870	-182.99037	12.20495	316.89505	-192.04042	5.94408	330.96918	-129.24467	21.67091	338.52646	-112.47115	18.32963	324.04657	-119.15760	3.92179	335.38614	-112.71233	3.79666	
9588	79.892	421.88104	-114.88026	53.36294	411.76468	-117.99467	53.33265	391.41400	-122.98050	41.50184	365.17801	-129.61591	35.82163	331.85513	-137.44936	29.11405	301.16980	-138.91454	21.13867	269.76120	-122.21746	12.15825	247.95772	-83.86498	6.53209	239.02414	-44.55815	6.49356	402.04617	-132.64798	24.30453	401.00650	-145.91365	15.68920	408.63452	-136.23898	4.56587	390.76260	-112.62471	30.96983	381.54279	-106.26672	31.84188	379.45792	-96.15728	18.00829	332.28323	-148.14917	22.77024	328.31451	-166.90611	19.74308	312.71426	-182.65022	12.29705	317.28757	-191.77164	5.98426	331.21075	-128.73856	21.47739	338.24069	-111.83306	18.03456	324.02386	-119.13404	3.90643	335.39630	-112.68964	3.78155	
9589	79.900	422.46609	-114.79139	53.50422	412.33792	-117.78136	53.40271	391.84866	-122.61132	41.57327	365.62585	-129.00421	35.81237	332.29510	-137.01260	29.03396	301.64075	-138.94473	21.01864	269.95551	-122.71773	12.02691	247.75429	-84.55446	6.55211	238.96188	-45.17969	6.51842	402.37381	-132.46748	24.37423	400.96719	-145.73361	15.75316	408.63611	-136.24095	4.53575	391.53806	-112.35078	31.13071	382.71414	-105.61858	32.32028	382.17999	-94.29700	19.22377	332.81781	-147.67717	22.71818	328.94382	-166.43988	19.77580	313.37140	-182.31602	12.42395	317.68588	-191.48610	6.05837	331.45676	-128.24625	21.36112	337.95071	-111.24141	17.76122	323.86270	-119.13666	4.06277	335.38797	-112.66977	3.76804	
9590	79.908	423.06519	-114.69020	53.66587	412.91113	-117.53075	53.45773	392.32681	-122.26547	41.63235	366.07260	-128.41887	35.84324	332.72794	-136.54842	29.03532	302.10840	-138.85620	20.96302	270.24908	-122.95072	11.97741	247.64195	-84.99602	6.56741	238.96695	-45.58511	6.55334	402.69031	-132.30363	24.47700	400.95233	-145.55026	15.83407	408.65659	-136.23726	4.54191	392.32382	-112.07371	31.25377	383.87299	-104.98196	32.77925	384.92441	-93.03969	20.22560	333.35181	-147.23692	22.75693	329.58755	-166.00177	19.88064	314.04138	-182.01237	12.61197	318.08850	-191.19666	6.18281	331.71527	-127.75025	21.30877	337.69537	-110.69028	17.49356	323.60397	-119.14684	4.33626	335.36801	-112.64561	3.75289	
9591	79.917	423.61441	-114.56552	53.77462	413.45404	-117.31410	53.46001	392.85001	-121.96714	41.67585	366.49292	-127.84193	35.94154	333.12396	-136.05768	29.11155	302.54935	-138.68129	20.98236	270.59940	-123.00237	11.98905	247.60793	-85.26204	6.60903	239.01096	-45.80818	6.64811	403.00012	-132.17570	24.59432	400.97208	-145.38068	15.92046	408.68887	-136.22415	4.56309	393.03061	-111.81567	31.37177	384.96469	-104.36662	33.18948	387.62305	-92.46120	20.96662	333.87851	-146.80461	22.87735	330.23157	-165.57301	20.03663	314.70950	-181.70984	12.83204	318.51242	-190.88197	6.31712	331.97754	-127.24242	21.33595	337.47632	-110.16627	17.22031	323.36136	-119.21024	4.63713	335.35199	-112.61776	3.74394	
9592	79.925	424.14072	-114.42480	53.86252	413.94794	-117.17075	53.43779	393.35663	-121.72868	41.72257	366.90765	-127.29135	36.08200	333.56882	-135.59196	29.17633	302.96790	-138.46472	21.04209	270.95883	-122.96053	12.04815	247.64076	-85.42764	6.64336	239.07314	-45.95350	6.73292	403.30237	-132.08244	24.70776	401.01758	-145.23708	15.99809	408.73270	-136.19316	4.61531	393.64722	-111.58675	31.48138	385.98022	-103.79102	33.46281	390.42902	-92.08967	21.56335	334.42651	-146.36592	23.03569	330.87939	-165.16011	20.21885	315.36325	-181.37926	13.05092	318.95645	-190.54198	6.47327	332.28333	-126.75417	21.38307	337.29584	-109.66650	16.93835	323.21527	-119.25178	4.83038	335.34073	-112.59052	3.73804	
